<?xml version="1.0" encoding="UTF-8"?>
<svg id="Layer_2" data-name="Layer 2" xmlns="http://www.w3.org/2000/svg" viewBox="0 0 367.84 126.46">
  <defs>
    <style>
      .cls-1 {
        fill: #e67112;
      }

      .cls-2 {
        fill: #0c273c;
      }
    </style>
  </defs>
  <g id="Logo">
    <g>
      <g>
        <path class="cls-2" d="M367.75,50.57C367.74,22.91,344.91,0,317.18,0c-4,0-7.89.46-11.63,1.34-13.92,3.27-25.61,12.3-32.45,24.43v-.03s-21.36,40.98-21.36,40.98c-2.43,4.67-5.89,8.75-10.21,11.77-5.25,3.67-11.58,5.82-18.4,5.82-14.92,0-27.31-9.86-32.03-23.24l-9.52,18.39c9.14,13.1,24.32,21.68,41.51,21.68,3.96,0,7.81-.46,11.51-1.32,13.64-3.18,25.16-11.87,32.08-23.61h0s21.68-41.66,21.75-41.78c5.56-10.48,16.37-17.6,28.79-17.6,18.1,0,33.66,15.1,33.66,33.73s-15.56,33.73-33.66,33.73c-14.96,0-26.76-9.63-32.03-23.3l-9.57,18.38c9.13,13.15,24.34,21.76,41.56,21.76,12.96,0,24.78-4.88,33.73-12.89v12.89h16.85v-50.57h0Z"/>
        <path class="cls-1" d="M223.09,0c-3.96,0-7.82.46-11.52,1.32-14.53,3.38-26.65,13.03-33.37,25.94,0,0-20.55,39.84-21.34,41.15-5.79,9.55-16.09,15.9-27.83,15.9-18.1,0-33.76-15.04-33.77-33.73,0-18.63,15.66-33.73,33.77-33.73,9.39,0,17.86,4.06,23.83,10.57l8.24-15.92C152.38,4.32,141.2,0,129,0c-27.91,0-50.65,22.8-50.57,50.71.07,27.87,22.69,50.44,50.57,50.44,4,0,7.89-.46,11.62-1.34,13.61-3.2,25.1-11.9,31.99-23.62l21.74-41.62c1.62-3.09,3.66-5.96,6.15-8.4,5.88-5.77,13.85-9.32,22.62-9.32,9.36,0,17.8,4.04,23.77,10.51l8.23-15.91c-8.72-7.15-19.88-11.45-32.04-11.45Z"/>
        <g>
          <path class="cls-1" d="M72.39,71.21c-1.7,7.5-8.41,13.1-16.43,13.1h0c-9.26,0-16.77-7.51-16.77-16.77v-28.07l30.61-.06c.97-5.75,2.98-11.13,5.89-16.89l-36.5.1h-16.74l-.15,44.8c0,18.65,15.12,33.77,33.77,33.77h0c10.61,0,20.06-4.91,26.23-12.57-4.3-5.26-7.64-11.13-9.92-17.41Z"/>
          <rect class="cls-1" x="22.46" y=".1" width="16.84" height="16.84"/>
          <rect class="cls-1" x="0" y="22.63" width="16.84" height="16.84"/>
        </g>
      </g>
      <g>
        <polygon class="cls-2" points="0 116.89 3.17 116.89 3.17 126.21 5.31 126.21 5.31 116.89 8.48 116.89 8.48 114.86 0 114.86 0 116.89"/>
        <path class="cls-2" d="M18.67,118.27c-.45-.27-1.01-.4-1.68-.4-.53,0-1.01.12-1.45.36-.44.24-.77.54-1.01.91h-.13l.13-1.41v-2.87h-2.08v11.35h2.08v-4.11c0-.42.08-.81.24-1.16.16-.35.38-.63.67-.83.29-.21.61-.31.98-.31.31,0,.57.06.8.19.23.13.41.31.54.55.13.24.2.54.2.9v4.77h2.08v-5.02c0-.68-.11-1.26-.34-1.76-.23-.5-.57-.88-1.02-1.15Z"/>
        <path class="cls-2" d="M30.62,118.73c-.64-.57-1.58-.86-2.82-.86-.47,0-.91.06-1.33.18-.42.12-.81.3-1.16.54-.35.24-.66.53-.92.86l1.33,1.05c.23-.29.53-.52.88-.69.35-.17.72-.26,1.1-.26.57,0,1.02.14,1.35.42.33.28.49.64.49,1.07v.35c-.14-.06-.31-.12-.52-.17-.21-.05-.45-.1-.72-.13-.27-.04-.57-.06-.9-.06-.6,0-1.15.11-1.64.33s-.88.53-1.17.94-.44.88-.44,1.44.13,1.01.38,1.43c.25.41.6.73,1.04.96.44.23.94.34,1.51.34.37,0,.7-.05,1-.15.3-.1.55-.23.78-.4.22-.16.41-.34.55-.53h.13v.82h2.04v-4.98c0-1.1-.32-1.93-.97-2.5ZM29.31,123.85c-.15.3-.38.54-.67.72-.29.19-.65.28-1.07.28-.44,0-.78-.11-1.01-.32-.23-.21-.34-.48-.34-.79,0-.34.12-.62.35-.86.23-.23.65-.35,1.27-.35.31,0,.61.03.9.1.3.07.56.16.79.28,0,.33-.08.64-.23.94Z"/>
        <path class="cls-2" d="M37.15,114.56c-.37,0-.69.13-.95.39-.26.26-.4.57-.4.94s.13.69.4.95c.26.26.58.4.95.4s.68-.13.94-.4c.26-.26.39-.58.39-.95s-.13-.68-.39-.94c-.26-.26-.57-.39-.94-.39Z"/>
        <rect class="cls-2" x="36.11" y="118.12" width="2.08" height="8.08"/>
        <rect class="cls-2" x="42.81" y="114.86" width="2.08" height="11.35"/>
        <path class="cls-2" d="M55.54,118.73c-.64-.57-1.58-.86-2.82-.86-.47,0-.91.06-1.33.18-.42.12-.81.3-1.16.54-.35.24-.66.53-.92.86l1.33,1.05c.23-.29.53-.52.88-.69.35-.17.72-.26,1.1-.26.57,0,1.02.14,1.35.42.33.28.49.64.49,1.07v.35c-.14-.06-.31-.12-.52-.17-.21-.05-.45-.1-.72-.13-.27-.04-.57-.06-.9-.06-.6,0-1.15.11-1.64.33s-.88.53-1.17.94-.44.88-.44,1.44.13,1.01.38,1.43c.25.41.6.73,1.04.96.44.23.94.34,1.51.34.37,0,.7-.05,1-.15.3-.1.55-.23.78-.4.22-.16.41-.34.55-.53h.13v.82h2.04v-4.98c0-1.1-.32-1.93-.97-2.5ZM54.23,123.85c-.15.3-.38.54-.67.72-.29.19-.65.28-1.07.28-.44,0-.78-.11-1.01-.32-.23-.21-.34-.48-.34-.79,0-.34.12-.62.35-.86.23-.23.65-.35,1.27-.35.31,0,.61.03.9.1.3.07.56.16.79.28,0,.33-.08.64-.23.94Z"/>
        <path class="cls-2" d="M65.57,117.87c-.52,0-1,.11-1.44.34-.44.23-.79.54-1.03.93h-.13v-1.01h-1.95v8.08h2.08v-4.12c0-.42.08-.81.23-1.15.15-.34.37-.62.65-.82.28-.21.61-.31.99-.31.46,0,.83.14,1.1.42s.4.68.4,1.21v4.77h2.08v-5.02c0-1-.25-1.81-.74-2.41-.5-.6-1.24-.9-2.23-.9Z"/>
        <path class="cls-2" d="M79.01,117.97l.13,1.14h-.13c-.13-.21-.31-.41-.54-.6-.23-.19-.51-.34-.82-.46-.32-.12-.67-.17-1.06-.17-.74,0-1.41.18-2,.55-.59.36-1.06.87-1.4,1.51-.34.64-.52,1.39-.52,2.23s.17,1.59.52,2.23c.34.64.81,1.15,1.4,1.51.59.36,1.26.55,2,.55.39,0,.74-.06,1.06-.17s.59-.27.82-.45c.23-.18.41-.38.54-.59h.13v.97h1.93v-11.35h-2.06v3.11ZM78.83,123.41c-.21.35-.48.63-.81.83-.33.2-.69.3-1.09.3s-.74-.1-1.07-.29c-.33-.2-.6-.47-.81-.83-.21-.36-.31-.78-.31-1.25s.1-.9.31-1.25c.21-.35.48-.62.81-.82.33-.2.69-.29,1.07-.29s.75.1,1.09.29c.33.2.6.47.81.82.21.35.31.77.31,1.24s-.1.89-.31,1.24Z"/>
        <path class="cls-2" d="M99.4,124.04c-.49.26-1.05.4-1.69.4-.71,0-1.35-.16-1.93-.48-.58-.32-1.03-.78-1.37-1.36s-.51-1.27-.51-2.05.17-1.48.51-2.06c.34-.58.8-1.03,1.37-1.36.58-.32,1.22-.48,1.93-.48.4,0,.77.05,1.09.16.33.11.63.25.9.44s.51.42.74.68l1.51-1.46c-.36-.4-.75-.74-1.18-1.01s-.9-.48-1.4-.63c-.51-.14-1.06-.21-1.66-.21-.83,0-1.61.15-2.34.45-.72.3-1.36.72-1.89,1.26-.54.54-.96,1.17-1.26,1.89-.3.72-.45,1.5-.45,2.33s.15,1.61.45,2.33c.3.72.72,1.35,1.26,1.89.54.54,1.17.96,1.89,1.26.72.3,1.5.45,2.34.45.62,0,1.21-.08,1.76-.24.55-.16,1.06-.39,1.52-.71.46-.31.88-.69,1.25-1.13l-1.52-1.44c-.38.47-.82.83-1.31,1.09Z"/>
        <path class="cls-2" d="M112.34,118.44c-.64-.38-1.39-.57-2.23-.57s-1.59.19-2.24.56c-.65.38-1.16.89-1.52,1.54s-.55,1.38-.55,2.2.18,1.55.55,2.2c.36.65.87,1.16,1.52,1.54.65.37,1.4.56,2.24.56s1.59-.19,2.23-.56c.64-.37,1.15-.89,1.51-1.54.36-.65.55-1.38.55-2.2s-.18-1.54-.55-2.19c-.36-.64-.87-1.16-1.51-1.54ZM112.02,123.44c-.21.35-.48.62-.81.81-.33.19-.7.28-1.1.28s-.76-.09-1.1-.28c-.34-.18-.62-.45-.82-.81-.21-.35-.31-.78-.31-1.28s.1-.92.31-1.27c.21-.35.48-.62.82-.81.34-.19.71-.29,1.1-.29s.77.1,1.1.29.6.46.81.81.31.77.31,1.27-.1.92-.31,1.28Z"/>
        <path class="cls-2" d="M123.14,117.87c-.52,0-1,.11-1.44.34-.44.23-.79.54-1.03.93h-.13v-1.01h-1.95v8.08h2.08v-4.12c0-.42.08-.81.23-1.15.15-.34.37-.62.65-.82.28-.21.61-.31.99-.31.46,0,.83.14,1.1.42s.4.68.4,1.21v4.77h2.08v-5.02c0-1-.25-1.81-.74-2.41-.5-.6-1.24-.9-2.23-.9Z"/>
        <path class="cls-2" d="M134.34,124.39c-.36,0-.62-.09-.78-.28-.16-.18-.24-.47-.24-.86v-3.34h1.98v-1.78h-1.98v-2.28h-2.08v2.28h-1.41v1.78h1.41v3.72c0,.85.24,1.51.71,1.99.48.48,1.13.72,1.97.72.25,0,.5-.02.74-.07.24-.05.47-.11.71-.2v-2.03c-.22.14-.41.23-.55.28-.15.05-.31.07-.48.07Z"/>
        <path class="cls-2" d="M145.15,118.43c-.59-.37-1.32-.55-2.19-.55-.8,0-1.52.2-2.14.59-.62.4-1.11.92-1.47,1.58-.36.66-.54,1.37-.54,2.14,0,.82.18,1.56.55,2.2.36.64.87,1.15,1.51,1.52.64.37,1.37.55,2.18.55.9,0,1.65-.19,2.27-.58.61-.39,1.11-.91,1.49-1.58l-1.68-.82c-.19.33-.45.6-.79.82-.34.22-.76.32-1.25.32-.42,0-.81-.1-1.15-.29-.34-.2-.62-.48-.82-.86-.13-.24-.21-.51-.26-.82h6.06c.01-.05.02-.14.03-.26.01-.12.02-.27.02-.44,0-.75-.15-1.43-.46-2.05-.31-.62-.76-1.11-1.35-1.48ZM140.93,121.18c.04-.15.09-.29.16-.42.19-.37.45-.67.78-.88.33-.21.7-.32,1.1-.32.31,0,.58.05.82.15.24.1.44.23.61.39.17.16.3.33.4.52.1.19.15.38.16.55h-4.03Z"/>
        <path class="cls-2" d="M155.69,117.87c-.52,0-1,.11-1.44.34-.44.23-.79.54-1.03.93h-.13v-1.01h-1.95v8.08h2.08v-4.12c0-.42.08-.81.23-1.15.15-.34.37-.62.65-.82.28-.21.61-.31.99-.31.46,0,.83.14,1.1.42s.4.68.4,1.21v4.77h2.08v-5.02c0-1-.25-1.81-.74-2.41-.5-.6-1.24-.9-2.23-.9Z"/>
        <path class="cls-2" d="M166.9,124.39c-.36,0-.62-.09-.78-.28-.16-.18-.24-.47-.24-.86v-3.34h1.98v-1.78h-1.98v-2.28h-2.08v2.28h-1.41v1.78h1.41v3.72c0,.85.24,1.51.71,1.99.48.48,1.13.72,1.97.72.25,0,.5-.02.74-.07.24-.05.47-.11.71-.2v-2.03c-.22.14-.41.23-.55.28-.15.05-.31.07-.48.07Z"/>
        <path class="cls-2" d="M185.91,124.04c-.49.26-1.05.4-1.69.4-.71,0-1.35-.16-1.93-.48-.58-.32-1.03-.78-1.37-1.36-.34-.59-.51-1.27-.51-2.05s.17-1.48.51-2.06c.34-.58.79-1.03,1.37-1.36.58-.32,1.22-.48,1.93-.48.4,0,.77.05,1.09.16.33.11.63.25.9.44.27.19.52.42.74.68l1.51-1.46c-.36-.4-.75-.74-1.18-1.01-.43-.27-.9-.48-1.4-.63-.51-.14-1.06-.21-1.66-.21-.83,0-1.61.15-2.34.45-.72.3-1.36.72-1.89,1.26s-.96,1.17-1.26,1.89c-.3.72-.45,1.5-.45,2.33s.15,1.61.45,2.33c.3.72.72,1.35,1.26,1.89s1.17.96,1.89,1.26,1.5.45,2.34.45c.62,0,1.21-.08,1.76-.24.55-.16,1.06-.39,1.52-.71.46-.31.88-.69,1.25-1.13l-1.52-1.44c-.38.47-.82.83-1.31,1.09Z"/>
        <path class="cls-2" d="M197.39,117.89c-.35,0-.68.06-.98.17-.31.12-.57.27-.8.47-.23.2-.41.42-.55.67h-.13v-1.08h-1.95v8.08h2.08v-4.03c0-.44.08-.84.24-1.2.16-.35.39-.63.69-.84.3-.21.66-.31,1.07-.31.24,0,.47.03.69.09.22.06.44.13.66.21v-2.08c-.13-.05-.27-.1-.44-.13-.17-.03-.36-.05-.57-.05Z"/>
        <path class="cls-2" d="M207.87,118.43c-.59-.37-1.32-.55-2.19-.55-.8,0-1.52.2-2.14.59-.62.4-1.11.92-1.47,1.58-.36.66-.54,1.37-.54,2.14,0,.82.18,1.56.55,2.2.36.64.87,1.15,1.51,1.52.64.37,1.37.55,2.18.55.9,0,1.65-.19,2.27-.58.61-.39,1.11-.91,1.49-1.58l-1.68-.82c-.19.33-.45.6-.79.82-.34.22-.76.32-1.25.32-.42,0-.81-.1-1.15-.29-.34-.2-.62-.48-.82-.86-.13-.24-.21-.51-.26-.82h6.06c.01-.05.02-.14.03-.26.01-.12.02-.27.02-.44,0-.75-.15-1.43-.46-2.05-.31-.62-.76-1.11-1.35-1.48ZM203.65,121.18c.04-.15.09-.29.16-.42.19-.37.45-.67.78-.88.33-.21.7-.32,1.1-.32.31,0,.58.05.82.15.24.1.44.23.61.39.17.16.3.33.4.52s.15.38.16.55h-4.03Z"/>
        <path class="cls-2" d="M219.88,118.73c-.64-.57-1.59-.86-2.82-.86-.47,0-.91.06-1.33.18s-.81.3-1.16.54c-.35.24-.66.53-.92.86l1.33,1.05c.23-.29.53-.52.88-.69.35-.17.72-.26,1.1-.26.57,0,1.02.14,1.35.42.33.28.49.64.49,1.07v.35c-.14-.06-.31-.12-.52-.17-.21-.05-.45-.1-.72-.13-.27-.04-.57-.06-.9-.06-.6,0-1.15.11-1.64.33s-.88.53-1.17.94c-.29.4-.44.88-.44,1.44s.13,1.01.38,1.43.6.73,1.04.96c.44.23.94.34,1.51.34.37,0,.7-.05,1-.15.3-.1.55-.23.78-.4.22-.16.41-.34.55-.53h.13v.82h2.04v-4.98c0-1.1-.32-1.93-.97-2.5ZM218.58,123.85c-.15.3-.38.54-.67.72-.29.19-.65.28-1.07.28-.44,0-.78-.11-1.01-.32-.23-.21-.34-.48-.34-.79,0-.34.12-.62.35-.86.23-.23.65-.35,1.27-.35.31,0,.61.03.9.1.3.07.56.16.79.28,0,.33-.08.64-.23.94Z"/>
        <path class="cls-2" d="M229.03,124.39c-.36,0-.62-.09-.78-.28-.16-.18-.24-.47-.24-.86v-3.34h1.98v-1.78h-1.98v-2.28h-2.08v2.28h-1.41v1.78h1.41v3.72c0,.85.24,1.51.71,1.99.48.48,1.13.72,1.97.72.25,0,.5-.02.74-.07s.47-.11.71-.2v-2.03c-.22.14-.41.23-.55.28-.15.05-.31.07-.48.07Z"/>
        <path class="cls-2" d="M240.04,118.44c-.64-.38-1.39-.57-2.23-.57s-1.59.19-2.24.56c-.65.38-1.16.89-1.52,1.54-.36.65-.55,1.38-.55,2.2s.18,1.55.55,2.2c.36.65.87,1.16,1.52,1.54.65.37,1.4.56,2.24.56s1.59-.19,2.23-.56,1.15-.89,1.51-1.54c.36-.65.55-1.38.55-2.2s-.18-1.54-.55-2.19c-.36-.64-.87-1.16-1.51-1.54ZM239.72,123.44c-.21.35-.48.62-.81.81-.33.19-.7.28-1.1.28s-.76-.09-1.1-.28c-.34-.18-.62-.45-.82-.81-.21-.35-.31-.78-.31-1.28s.1-.92.31-1.27c.21-.35.48-.62.82-.81.34-.19.71-.29,1.1-.29s.77.1,1.1.29c.33.19.6.46.81.81s.31.77.31,1.27-.1.92-.31,1.28Z"/>
        <path class="cls-2" d="M250.69,117.89c-.35,0-.68.06-.98.17-.31.12-.57.27-.8.47-.23.2-.41.42-.55.67h-.13v-1.08h-1.95v8.08h2.08v-4.03c0-.44.08-.84.24-1.2.16-.35.39-.63.69-.84.3-.21.66-.31,1.07-.31.24,0,.47.03.69.09.22.06.44.13.66.21v-2.08c-.13-.05-.27-.1-.44-.13-.17-.03-.36-.05-.57-.05Z"/>
        <path class="cls-2" d="M265.42,114.86l-4.25,11.35h2.36l.95-2.71h4.34l.95,2.71h2.36l-4.26-11.35h-2.46ZM266.53,121.53h-1.35l1-2.85.41-1.36h.13l.41,1.36,1,2.85h-1.61Z"/>
        <path class="cls-2" d="M280.08,121.39l-1.19-.29c-.3-.07-.55-.18-.76-.33-.21-.15-.32-.32-.32-.52,0-.19.11-.35.32-.49.21-.14.5-.21.86-.21.31,0,.59.06.86.19.27.13.49.35.66.67l1.78-.78c-.19-.4-.44-.73-.76-.99-.32-.26-.69-.45-1.13-.58s-.92-.19-1.46-.19c-.58,0-1.11.1-1.59.3-.48.2-.86.48-1.14.84-.28.36-.42.78-.42,1.27,0,.43.11.82.32,1.15.22.33.5.61.85.82.35.22.72.37,1.11.45l.95.21c.22.04.44.1.65.17.21.07.39.16.53.29.14.12.21.29.21.5,0,.3-.14.5-.41.61-.28.11-.58.17-.92.17-.41,0-.77-.1-1.08-.29-.31-.2-.55-.48-.73-.86l-1.85.81c.15.39.37.75.68,1.08.31.33.71.59,1.2.79s1.09.3,1.78.3c.63,0,1.21-.11,1.73-.32.52-.22.93-.52,1.24-.92.31-.4.46-.86.46-1.39,0-.59-.2-1.1-.61-1.52-.41-.42-1.01-.73-1.81-.92Z"/>
        <path class="cls-2" d="M290.68,121.39l-1.19-.29c-.3-.07-.55-.18-.76-.33-.21-.15-.32-.32-.32-.52,0-.19.11-.35.32-.49.21-.14.5-.21.86-.21.31,0,.59.06.86.19.27.13.49.35.66.67l1.78-.78c-.19-.4-.44-.73-.76-.99-.32-.26-.69-.45-1.13-.58s-.92-.19-1.46-.19c-.58,0-1.11.1-1.59.3-.48.2-.86.48-1.14.84-.28.36-.42.78-.42,1.27,0,.43.11.82.32,1.15.22.33.5.61.85.82.35.22.72.37,1.11.45l.95.21c.22.04.44.1.65.17.21.07.39.16.53.29.14.12.21.29.21.5,0,.3-.14.5-.41.61-.28.11-.58.17-.92.17-.41,0-.77-.1-1.08-.29-.31-.2-.55-.48-.73-.86l-1.85.81c.15.39.37.75.68,1.08.31.33.71.59,1.2.79s1.09.3,1.78.3c.63,0,1.21-.11,1.73-.32.52-.22.93-.52,1.24-.92.31-.4.46-.86.46-1.39,0-.59-.2-1.1-.61-1.52-.41-.42-1.01-.73-1.81-.92Z"/>
        <path class="cls-2" d="M303.31,118.44c-.64-.38-1.39-.57-2.23-.57s-1.59.19-2.24.56c-.65.38-1.16.89-1.52,1.54-.36.65-.55,1.38-.55,2.2s.18,1.55.55,2.2c.36.65.87,1.16,1.52,1.54.65.37,1.4.56,2.24.56s1.59-.19,2.23-.56,1.15-.89,1.51-1.54c.36-.65.55-1.38.55-2.2s-.18-1.54-.55-2.19c-.36-.64-.87-1.16-1.51-1.54ZM302.99,123.44c-.21.35-.48.62-.81.81-.33.19-.7.28-1.1.28s-.76-.09-1.1-.28c-.34-.18-.62-.45-.82-.81-.21-.35-.31-.78-.31-1.28s.1-.92.31-1.27c.21-.35.48-.62.82-.81.34-.19.71-.29,1.1-.29s.77.1,1.1.29c.33.19.6.46.81.81s.31.77.31,1.27-.1.92-.31,1.28Z"/>
        <path class="cls-2" d="M314.52,124.23c-.31.21-.69.31-1.16.31-.41,0-.78-.1-1.11-.29-.33-.2-.59-.47-.78-.82-.19-.35-.29-.77-.29-1.26s.1-.9.29-1.25c.19-.35.45-.62.78-.82s.7-.29,1.11-.29.79.09,1.09.26.54.45.71.82l1.9-.79c-.29-.72-.75-1.27-1.39-1.65-.64-.38-1.42-.57-2.31-.57-.82,0-1.56.19-2.19.55-.64.37-1.14.88-1.51,1.52-.36.64-.55,1.38-.55,2.22s.18,1.58.55,2.23c.36.65.87,1.16,1.51,1.52.64.36,1.37.55,2.19.55.9,0,1.67-.21,2.31-.62.64-.41,1.13-.96,1.44-1.63l-1.85-.82c-.19.36-.44.64-.74.85Z"/>
        <rect class="cls-2" x="321.18" y="118.12" width="2.08" height="8.08"/>
        <path class="cls-2" d="M322.22,114.56c-.37,0-.69.13-.95.39-.26.26-.4.57-.4.94s.13.69.4.95c.26.26.58.4.95.4s.68-.13.94-.4c.26-.26.39-.58.39-.95s-.13-.68-.39-.94c-.26-.26-.57-.39-.94-.39Z"/>
        <path class="cls-2" d="M333.9,118.73c-.64-.57-1.59-.86-2.82-.86-.47,0-.91.06-1.33.18s-.81.3-1.16.54c-.35.24-.66.53-.92.86l1.33,1.05c.23-.29.53-.52.88-.69.35-.17.72-.26,1.1-.26.57,0,1.02.14,1.35.42.33.28.49.64.49,1.07v.35c-.14-.06-.31-.12-.52-.17-.21-.05-.45-.1-.72-.13-.27-.04-.57-.06-.9-.06-.6,0-1.15.11-1.64.33s-.88.53-1.17.94c-.29.4-.44.88-.44,1.44s.13,1.01.38,1.43.6.73,1.04.96c.44.23.94.34,1.51.34.37,0,.7-.05,1-.15.3-.1.55-.23.78-.4.22-.16.41-.34.55-.53h.13v.82h2.04v-4.98c0-1.1-.32-1.93-.97-2.5ZM332.6,123.85c-.15.3-.38.54-.67.72-.29.19-.65.28-1.07.28-.44,0-.78-.11-1.01-.32-.23-.21-.34-.48-.34-.79,0-.34.12-.62.35-.86.23-.23.65-.35,1.27-.35.31,0,.61.03.9.1.3.07.56.16.79.28,0,.33-.08.64-.23.94Z"/>
        <path class="cls-2" d="M343.05,124.39c-.36,0-.62-.09-.78-.28-.16-.18-.24-.47-.24-.86v-3.34h1.98v-1.78h-1.98v-2.28h-2.08v2.28h-1.41v1.78h1.41v3.72c0,.85.24,1.51.71,1.99.48.48,1.13.72,1.97.72.25,0,.5-.02.74-.07s.47-.11.71-.2v-2.03c-.22.14-.41.23-.55.28-.15.05-.31.07-.48.07Z"/>
        <path class="cls-2" d="M354.07,118.44c-.64-.38-1.39-.57-2.23-.57s-1.59.19-2.24.56c-.65.38-1.16.89-1.52,1.54-.36.65-.55,1.38-.55,2.2s.18,1.55.55,2.2c.36.65.87,1.16,1.52,1.54.65.37,1.4.56,2.24.56s1.59-.19,2.23-.56,1.15-.89,1.51-1.54c.36-.65.55-1.38.55-2.2s-.18-1.54-.55-2.19c-.36-.64-.87-1.16-1.51-1.54ZM353.74,123.44c-.21.35-.48.62-.81.81-.33.19-.7.28-1.1.28s-.76-.09-1.1-.28c-.34-.18-.62-.45-.82-.81-.21-.35-.31-.78-.31-1.28s.1-.92.31-1.27c.21-.35.48-.62.82-.81.34-.19.71-.29,1.1-.29s.77.1,1.1.29c.33.19.6.46.81.81s.31.77.31,1.27-.1.92-.31,1.28Z"/>
        <path class="cls-2" d="M367.09,118.77c-.5-.6-1.24-.9-2.23-.9-.52,0-1,.11-1.44.34-.44.23-.79.54-1.03.93h-.13v-1.01h-1.95v8.08h2.08v-4.12c0-.42.08-.81.23-1.15.15-.34.37-.62.65-.82.28-.21.61-.31.99-.31.46,0,.83.14,1.1.42.27.28.4.68.4,1.21v4.77h2.08v-5.02c0-1-.25-1.81-.75-2.41Z"/>
      </g>
    </g>
  </g>
</svg>