<?xml version="1.0" encoding="UTF-8"?>
<svg id="Layer_2" data-name="Layer 2" xmlns="http://www.w3.org/2000/svg" viewBox="0 0 163.87 45.09">
  <defs>
    <style>
      .cls-1 {
        fill: #e67112;
      }

      .cls-2 {
        fill: #0c273c;
      }
    </style>
  </defs>
  <g id="Logo">
    <g>
      <path class="cls-2" d="M163.87,22.53C163.86,10.21,153.69,0,141.33,0c-1.78,0-3.52.21-5.18.6-6.2,1.46-11.41,5.48-14.46,10.89h0s-9.52,18.25-9.52,18.25c-1.08,2.08-2.63,3.9-4.55,5.24-2.34,1.64-5.16,2.59-8.2,2.59-6.65,0-12.17-4.39-14.27-10.35l-4.24,8.2c4.07,5.84,10.84,9.66,18.49,9.66,1.76,0,3.48-.2,5.13-.59,6.08-1.41,11.21-5.29,14.3-10.52h0s9.66-18.56,9.69-18.62c2.48-4.67,7.29-7.84,12.83-7.84,8.07,0,15,6.73,15,15.03s-6.93,15.03-15,15.03c-6.67,0-11.93-4.29-14.27-10.38l-4.26,8.19c4.07,5.86,10.85,9.69,18.52,9.69,5.77,0,11.04-2.17,15.03-5.74v5.74h7.51v-22.53h0Z"/>
      <path class="cls-1" d="M99.41,0c-1.77,0-3.48.2-5.13.59-6.47,1.51-11.87,5.81-14.87,11.56,0,0-9.16,17.75-9.51,18.34-2.58,4.25-7.17,7.08-12.4,7.08-8.07,0-15.04-6.7-15.05-15.03,0-8.3,6.98-15.03,15.05-15.03,4.18,0,7.96,1.81,10.62,4.71l3.67-7.09C67.9,1.92,62.92,0,57.48,0c-12.43,0-22.57,10.16-22.53,22.6.03,12.42,10.11,22.47,22.53,22.47,1.78,0,3.52-.21,5.18-.6,6.06-1.43,11.18-5.3,14.26-10.53l9.69-18.54c.72-1.38,1.63-2.65,2.74-3.74,2.62-2.57,6.17-4.15,10.08-4.15,4.17,0,7.93,1.8,10.59,4.68l3.67-7.09c-3.89-3.19-8.86-5.1-14.28-5.1Z"/>
      <g>
        <path class="cls-1" d="M32.26,31.73c-.76,3.34-3.75,5.84-7.32,5.84h0c-4.13,0-7.47-3.34-7.47-7.47v-12.51l13.64-.03c.43-2.56,1.33-4.96,2.63-7.52l-16.26.04h-7.46l-.06,19.96c0,8.31,6.74,15.05,15.05,15.05h0c4.73,0,8.94-2.19,11.69-5.6-1.92-2.34-3.4-4.96-4.42-7.76Z"/>
        <rect class="cls-1" x="10.01" y=".04" width="7.51" height="7.51"/>
        <rect class="cls-1" y="10.08" width="7.51" height="7.51"/>
      </g>
    </g>
  </g>
</svg>